<svg xmlns="http://www.w3.org/2000/svg" xmlns:xlink="http://www.w3.org/1999/xlink" fill="none" version="1.1" width="40" height="40" viewBox="0 0 40 40"><g style="mix-blend-mode:passthrough"><path d="M0 0C0 0 0 0 0 0L34 0C37.31370849898476 0 40 2.6862915010152397 40 6L40 34C40 37.31370849898476 37.31370849898476 40 34 40L0 40C0 40 0 40 0 40Z" fill="#FFFFFF" fill-opacity="1"/><g style="mix-blend-mode:passthrough"><g style="mix-blend-mode:passthrough"><g style="mix-blend-mode:passthrough"><g style="mix-blend-mode:passthrough"><path d="M11,28L11,15C11,13.9,11.9,13,13,13L27,13C28.1,13,29,13.9,29,15L29,28C29,29.1,28.1,30,27,30L13,30C11.9,30,11,29.1,11,28ZM13,28L13,15L27,15L27,28L13,28Z" fill-rule="evenodd" fill="#2243E5" fill-opacity="1"/></g><g style="mix-blend-mode:passthrough"><path d="M12,19L28,19L28,17L12,17L12,19Z" fill-rule="evenodd" fill="#2243E5" fill-opacity="1"/></g><g style="mix-blend-mode:passthrough"><path d="M14,14C14,14.55,14.45,15,15,15C15.55,15,16,14.55,16,14L16,12C16,11.45,15.55,11,15,11C14.45,11,14,11.45,14,12L14,14Z" fill-rule="evenodd" fill="#2243E5" fill-opacity="1"/></g><g style="mix-blend-mode:passthrough"><path d="M24,14C24,14.55,24.45,15,25,15C25.55,15,26,14.55,26,14L26,12C26,11.45,25.55,11,25,11C24.45,11,24,11.45,24,12L24,14Z" fill-rule="evenodd" fill="#2243E5" fill-opacity="1"/></g><g style="mix-blend-mode:passthrough" transform="matrix(6.123234262925839e-17,1,-1,6.123234262925839e-17,39,3)"><rect x="18" y="21" width="5" height="2" rx="1" fill="#2243E5" fill-opacity="1"/></g><g style="mix-blend-mode:passthrough" transform="matrix(6.123234262925839e-17,1,-1,6.123234262925839e-17,45,-3)"><rect x="24" y="21" width="5" height="2" rx="1" fill="#2243E5" fill-opacity="1"/></g></g></g></g></g></svg>